<?xml version="1.0" encoding="UTF-8"?>
<svg id="uuid-f022a628-1a32-46d8-b306-6f2f6e7bada9" data-name="Layer 1" xmlns="http://www.w3.org/2000/svg" viewBox="0 0 1000 1000">
  <defs>
    <style>
      .uuid-8b700ef3-b07c-4712-976c-33ef86a0c73d, .uuid-9937e4aa-0230-41a7-a79c-200671cd3fff {
        stroke-width: 0px;
      }

      .uuid-9937e4aa-0230-41a7-a79c-200671cd3fff {
        fill: #333333;
      }
    </style>
  </defs>
  <rect class="uuid-8b700ef3-b07c-4712-976c-33ef86a0c73d" width="1000" height="1000" fill="transparent"/>
  <g>
    <path class="uuid-9937e4aa-0230-41a7-a79c-200671cd3fff" d="m396.68,813c0-2.88,2.2-5.02,5.12-5.02,1.35,0,2.58.44,3.45,1.32l-.3.31c-.88-.85-1.96-1.19-3.13-1.19-2.65,0-4.65,1.99-4.65,4.58s2,4.58,4.65,4.58c1.18,0,2.25-.35,3.13-1.21l.3.31c-.87.89-2.1,1.33-3.45,1.33-2.92,0-5.12-2.14-5.12-5.02Z"/>
    <path class="uuid-9937e4aa-0230-41a7-a79c-200671cd3fff" d="m420.45,817.96l-2.45-3.42c-.33.06-.69.09-1.08.09h-2.96v3.33h-.48v-9.93h3.45c2.47,0,3.94,1.22,3.94,3.29,0,1.6-.87,2.69-2.38,3.11l2.54,3.53h-.57Zm-3.5-3.77c2.23,0,3.45-1.04,3.45-2.86s-1.22-2.85-3.45-2.85h-2.99v5.72h2.99Z"/>
    <path class="uuid-9937e4aa-0230-41a7-a79c-200671cd3fff" d="m436.04,817.52v.44h-6.71v-9.93h6.51v.44h-6.03v4.23h5.39v.44h-5.39v4.38h6.23Z"/>
    <path class="uuid-9937e4aa-0230-41a7-a79c-200671cd3fff" d="m450.56,815.05h-5.94l-1.33,2.91h-.52l4.6-9.93h.47l4.59,9.93h-.52l-1.33-2.91Zm-.18-.41l-2.78-6.06-2.79,6.06h5.57Z"/>
    <path class="uuid-9937e4aa-0230-41a7-a79c-200671cd3fff" d="m461.41,808.47h-3.64v-.44h7.76v.44h-3.64v9.49h-.47v-9.49Z"/>
    <path class="uuid-9937e4aa-0230-41a7-a79c-200671cd3fff" d="m473.06,808.03h.48v9.93h-.48v-9.93Z"/>
    <path class="uuid-9937e4aa-0230-41a7-a79c-200671cd3fff" d="m490.39,808.03l-4.45,9.93h-.47l-4.45-9.93h.54l4.17,9.3,4.16-9.3h.51Z"/>
    <path class="uuid-9937e4aa-0230-41a7-a79c-200671cd3fff" d="m504.49,817.52v.44h-6.71v-9.93h6.51v.44h-6.03v4.23h5.39v.44h-5.39v4.38h6.23Z"/>
    <path class="uuid-9937e4aa-0230-41a7-a79c-200671cd3fff" d="m522.19,808.03h3.83c3.15,0,5.26,2.08,5.26,4.96s-2.11,4.96-5.26,4.96h-3.83v-9.93Zm3.8,9.49c2.94,0,4.81-1.9,4.81-4.52s-1.87-4.52-4.81-4.52h-3.32v9.05h3.32Z"/>
    <path class="uuid-9937e4aa-0230-41a7-a79c-200671cd3fff" d="m546.28,817.52v.44h-6.71v-9.93h6.51v.44h-6.03v4.23h5.39v.44h-5.39v4.38h6.23Z"/>
    <path class="uuid-9937e4aa-0230-41a7-a79c-200671cd3fff" d="m553.68,816.64l.26-.34c.64.72,1.9,1.29,3.28,1.29,2.08,0,3.01-.95,3.01-2.1,0-3.18-6.25-1.29-6.25-4.96,0-1.33,1.02-2.55,3.39-2.55,1.09,0,2.2.35,2.94.91l-.21.38c-.79-.58-1.82-.87-2.71-.87-2.01,0-2.94.96-2.94,2.13,0,3.19,6.25,1.35,6.25,4.95,0,1.35-1.06,2.54-3.46,2.54-1.46,0-2.85-.57-3.55-1.38Z"/>
    <path class="uuid-9937e4aa-0230-41a7-a79c-200671cd3fff" d="m568.95,808.03h.48v9.93h-.48v-9.93Z"/>
    <path class="uuid-9937e4aa-0230-41a7-a79c-200671cd3fff" d="m585.92,813.07h.45v3.67c-.88.85-2.13,1.28-3.47,1.28-2.96,0-5.16-2.14-5.16-5.02s2.2-5.02,5.16-5.02c1.39,0,2.62.43,3.49,1.3l-.28.33c-.89-.87-1.97-1.19-3.19-1.19-2.69,0-4.69,1.99-4.69,4.58s2,4.58,4.69,4.58c1.13,0,2.18-.3,3.01-1.04v-3.47Z"/>
    <path class="uuid-9937e4aa-0230-41a7-a79c-200671cd3fff" d="m603.32,808.03v9.93h-.4l-7.05-9.05v9.05h-.48v-9.93h.4l7.05,9.05v-9.05h.48Z"/>
  </g>
  <g>
    <path class="uuid-9937e4aa-0230-41a7-a79c-200671cd3fff" d="m342.44,564.71c-11.38,0-21.79-5.18-28.57-14.31-6.79-9.08-8.84-20.56-5.62-31.45l17.24-58.16c4.45-14.99,18.51-25.48,34.19-25.48h122.16l16.39-78.14h-138.55c-50.06,0-94.89,33.5-109.1,81.46l-17.24,58.11c-10.31,34.77-3.76,71.35,17.92,100.4,21.68,29.06,54.94,45.7,91.18,45.7h92.94l16.09-78.13h-109.03Z"/>
    <polygon class="uuid-9937e4aa-0230-41a7-a79c-200671cd3fff" points="525.13 435.3 540.17 357.16 529.12 357.16 512.72 435.3 525.13 435.3"/>
    <polygon class="uuid-9937e4aa-0230-41a7-a79c-200671cd3fff" points="546.18 435.3 561.22 357.16 550.17 357.16 533.77 435.3 546.18 435.3"/>
    <path class="uuid-9937e4aa-0230-41a7-a79c-200671cd3fff" d="m771.44,463.33c0-58.55-47.61-106.17-106.16-106.17h-74.51l-15.04,78.14h89.55c15.42,0,28.03,12.54,28.03,28.03s-12.6,28.03-28.03,28.03h-108.9l.16-.77,8.92-46.34h-79.19l-40.89,198.58h79.79l15.14-73.34h66.47l27.59,73.34h83.46l-28.62-76.13c47.08-10.84,82.23-53.08,82.23-103.38Z"/>
    <polygon class="uuid-9937e4aa-0230-41a7-a79c-200671cd3fff" points="566.61 435.3 581.66 357.16 570.6 357.16 554.21 435.3 566.61 435.3"/>
    <polygon class="uuid-9937e4aa-0230-41a7-a79c-200671cd3fff" points="504.87 435.3 519.92 357.16 508.86 357.16 492.47 435.3 504.87 435.3"/>
  </g>
</svg>